<svg width="48" height="46" viewBox="0 0 48 46" fill="none" xmlns="http://www.w3.org/2000/svg">
<path d="M24 42.1667C23.5333 42.1667 23.1333 42.0389 22.8 41.7834C22.4667 41.5278 22.2167 41.1924 22.05 40.7771C21.4167 38.9882 20.6167 37.3112 19.65 35.7459C18.7167 34.1806 17.4 32.3438 15.7 30.2355C14 28.1271 12.6167 26.1146 11.55 24.198C10.5167 22.2813 10 19.9653 10 17.25C10 13.5125 11.35 10.35 14.05 7.76254C16.7833 5.1431 20.1 3.83337 24 3.83337C27.9 3.83337 31.2 5.1431 33.9 7.76254C36.6333 10.35 38 13.5125 38 17.25C38 20.157 37.4167 22.5848 36.25 24.5334C35.1167 26.45 33.8 28.3507 32.3 30.2355C30.5 32.5355 29.1333 34.4521 28.2 35.9855C27.3 37.4868 26.55 39.0841 25.95 40.7771C25.7833 41.2243 25.5167 41.5757 25.15 41.8313C24.8167 42.0549 24.4333 42.1667 24 42.1667ZM24 22.0417C25.4 22.0417 26.5833 21.5785 27.55 20.6521C28.5167 19.7257 29 18.5917 29 17.25C29 15.9084 28.5167 14.7743 27.55 13.848C26.5833 12.9216 25.4 12.4584 24 12.4584C22.6 12.4584 21.4167 12.9216 20.45 13.848C19.4833 14.7743 19 15.9084 19 17.25C19 18.5917 19.4833 19.7257 20.45 20.6521C21.4167 21.5785 22.6 22.0417 24 22.0417Z" fill="#BE1B4B"/>
</svg>
