<svg width="25" height="25" viewBox="0 0 25 25" fill="none" xmlns="http://www.w3.org/2000/svg">
<g id="3 - Bold / check-circle">
<path id="check-circle-Bold" d="M17.4032 9.68034C17.8105 10.0876 17.8105 10.746 17.4032 11.1533L12.1948 16.3617C11.9917 16.5648 11.725 16.6668 11.4584 16.6668C11.1917 16.6668 10.925 16.5648 10.7219 16.3617L7.59691 13.2367C7.18962 12.8294 7.18962 12.171 7.59691 11.7637C8.00421 11.3564 8.66254 11.3564 9.06983 11.7637L11.4584 14.1523L15.9302 9.68034C16.3375 9.27305 16.9959 9.27305 17.4032 9.68034ZM22.9167 12.5002C22.9167 18.2439 18.2438 22.9168 12.5 22.9168C6.75629 22.9168 2.08337 18.2439 2.08337 12.5002C2.08337 6.75641 6.75629 2.0835 12.5 2.0835C18.2438 2.0835 22.9167 6.75641 22.9167 12.5002ZM20.8334 12.5002C20.8334 7.90537 17.0948 4.16683 12.5 4.16683C7.90525 4.16683 4.16671 7.90537 4.16671 12.5002C4.16671 17.095 7.90525 20.8335 12.5 20.8335C17.0948 20.8335 20.8334 17.095 20.8334 12.5002Z" fill="#41416E"/>
</g>
</svg>
