<svg width="57" height="52" viewBox="0 0 57 52" fill="none" xmlns="http://www.w3.org/2000/svg">
<path d="M35.5 8L35.8636 18.1738C36.086 24.398 40.9017 29.3898 46.9036 29.6173L57 30L46.9036 30.3827C40.9017 30.6102 36.086 35.602 35.8636 41.8262L35.5 52L35.1364 41.8262C34.914 35.602 30.0983 30.6102 24.0964 30.3827L14 30L24.0964 29.6173C30.0983 29.3898 34.914 24.398 35.1364 18.1738L35.5 8Z" fill="#282E4C"/>
<path d="M14.5 0L14.7452 6.93666C14.8952 11.1805 18.143 14.5839 22.1908 14.7391L29 15L22.1908 15.2609C18.143 15.4161 14.8952 18.8195 14.7452 23.0633L14.5 30L14.2548 23.0633C14.1048 18.8195 10.857 15.4161 6.80923 15.2609L0 15L6.80923 14.7391C10.857 14.5839 14.1048 11.1805 14.2548 6.93666L14.5 0Z" fill="#282E4C"/>
</svg>
