<svg width="24" height="23" viewBox="0 0 24 23" fill="none" xmlns="http://www.w3.org/2000/svg">
<path d="M12.1031 12.4256C14.9149 12.4256 17.2019 10.1376 17.2019 7.32681C17.2019 4.51599 14.9149 2.22803 12.1031 2.22803C9.29137 2.22803 7.00433 4.51599 7.00433 7.32681C7.00433 10.1376 9.29137 12.4256 12.1031 12.4256ZM12.1031 4.08213C13.8923 4.08213 15.3478 5.5376 15.3478 7.32681C15.3478 9.11602 13.8923 10.5715 12.1031 10.5715C10.3139 10.5715 8.85844 9.11602 8.85844 7.32681C8.85844 5.5376 10.3139 4.08213 12.1031 4.08213ZM19.5195 17.0303V17.9675C19.5195 18.8909 19.1821 19.7762 18.5693 20.4603C18.3857 20.6652 18.1327 20.769 17.8777 20.769C17.658 20.769 17.4364 20.6912 17.2594 20.5326C16.8774 20.1915 16.8459 19.6047 17.1871 19.2237C17.4948 18.8797 17.6645 18.4329 17.6645 17.9675V17.0303C17.6645 15.7333 16.8051 14.6116 15.5758 14.3029C15.3978 14.2584 15.2078 14.2806 15.0558 14.3677C13.2193 15.3893 10.9777 15.3838 9.15878 14.3733C8.9984 14.2815 8.80931 14.2584 8.63131 14.3029C7.39926 14.6116 6.54081 15.7333 6.54081 17.0303V17.9675C6.54081 18.4338 6.71047 18.8797 7.01825 19.2237C7.35941 19.6047 7.32696 20.1915 6.94594 20.5326C6.564 20.8747 5.97811 20.8413 5.63696 20.4603C5.02418 19.7762 4.68671 18.8909 4.68671 17.9675V17.0303C4.68671 14.8823 6.12274 13.0207 8.17893 12.5044C8.81582 12.3421 9.50555 12.4358 10.0692 12.7575C11.3198 13.4509 12.8781 13.4565 14.1463 12.752C14.7016 12.434 15.3913 12.3412 16.0292 12.5034C18.0835 13.0207 19.5195 14.8814 19.5195 17.0303Z" fill="#DE96AB"/>
</svg>
