<svg width="39" height="39" viewBox="0 0 39 39" fill="none" xmlns="http://www.w3.org/2000/svg">
<path d="M1.07361 0.0613953C1.2627 0.00556319 1.46093 -0.0124404 1.65698 0.00841441C1.85303 0.0292693 2.04304 0.0885735 2.21615 0.182934C2.38925 0.277295 2.54206 0.404862 2.66583 0.558336C2.78959 0.71181 2.88188 0.888181 2.93743 1.07736L4.03732 4.80123H33.3444C37.024 4.80123 39.8338 8.2351 38.7739 11.821L35.4642 23.0206C34.7603 25.4085 32.5225 27.0004 30.0347 27.0004H11.7246C9.2368 27.0004 7.00103 25.4085 6.2951 23.0206L0.0617148 1.92733C-0.0511934 1.54596 -0.00802069 1.13536 0.181739 0.785822C0.371498 0.436283 0.692306 0.174426 1.07361 0.0613953ZM7.99893 34.5002C7.99893 33.3067 8.47299 32.1622 9.31682 31.3183C10.1606 30.4744 11.3051 30.0003 12.4985 30.0003C13.6918 30.0003 14.8363 30.4744 15.6801 31.3183C16.524 32.1622 16.998 33.3067 16.998 34.5002C16.998 35.6936 16.524 36.8381 15.6801 37.682C14.8363 38.5259 13.6918 39 12.4985 39C11.3051 39 10.1606 38.5259 9.31682 37.682C8.47299 36.8381 7.99893 35.6936 7.99893 34.5002ZM23.9973 34.5002C23.9973 33.9092 24.1137 33.3241 24.3398 32.7781C24.566 32.2322 24.8974 31.7361 25.3152 31.3183C25.7331 30.9004 26.2291 30.569 26.775 30.3429C27.3209 30.1167 27.906 30.0003 28.4969 30.0003C29.0878 30.0003 29.6729 30.1167 30.2188 30.3429C30.7647 30.569 31.2607 30.9004 31.6786 31.3183C32.0964 31.7361 32.4278 32.2322 32.6539 32.7781C32.8801 33.3241 32.9964 33.9092 32.9964 34.5002C32.9964 35.6936 32.5224 36.8381 31.6786 37.682C30.8347 38.5259 29.6903 39 28.4969 39C27.3035 39 26.1591 38.5259 25.3152 37.682C24.4714 36.8381 23.9973 35.6936 23.9973 34.5002Z" fill="#DE96AB"/>
</svg>
