<svg width="16" height="16" viewBox="0 0 16 16" fill="none" xmlns="http://www.w3.org/2000/svg">
<path d="M7.62957 1.30772C7.97918 1.30772 8.26177 1.59032 8.26177 1.93993L8.26177 11.7934L11.608 8.4472C11.8552 8.20001 12.2548 8.20001 12.502 8.4472C12.6253 8.57048 12.6872 8.73231 12.6872 8.89415C12.6872 9.05599 12.6253 9.21782 12.502 9.3411L8.07656 13.7665C7.82937 14.0137 7.42978 14.0137 7.18258 13.7665L2.75717 9.3411C2.50998 9.09391 2.50998 8.69439 2.75717 8.4472C3.00436 8.20001 3.40395 8.20001 3.65114 8.4472L6.99737 11.7934L6.99737 1.93993C6.99737 1.59032 7.27996 1.30772 7.62957 1.30772Z" fill="#41416E"/>
</svg>
