<svg width="24" height="24" viewBox="0 0 24 24" fill="none" xmlns="http://www.w3.org/2000/svg">
<path d="M21.5 8.18994C21.5 5.65994 19.5 3.58995 17 3.44995V3.25C17 2.7 16.55 2.25 16 2.25C15.45 2.25 15 2.7 15 3.25V3.41992H9V3.25C9 2.7 8.55 2.25 8 2.25C7.45 2.25 7 2.7 7 3.25V3.44995C4.5 3.58995 2.5 5.65994 2.5 8.18994V10.0801C2.5 10.1101 2.50999 10.1399 2.51999 10.1699C2.50999 10.1899 2.5 10.22 2.5 10.25V17.25C2.5 19.73 4.52 21.75 7 21.75H17C19.48 21.75 21.5 19.73 21.5 17.25V10.25C21.5 10.22 21.49 10.1899 21.48 10.1699C21.49 10.1399 21.5 10.1101 21.5 10.0801V8.18994ZM8 18.25C7.45 18.25 7 17.8 7 17.25C7 16.7 7.45 16.25 8 16.25C8.55 16.25 9 16.7 9 17.25C9 17.8 8.55 18.25 8 18.25ZM8 14.25C7.45 14.25 7 13.8 7 13.25C7 12.7 7.45 12.25 8 12.25C8.55 12.25 9 12.7 9 13.25C9 13.8 8.55 14.25 8 14.25ZM12 18.25C11.45 18.25 11 17.8 11 17.25C11 16.7 11.45 16.25 12 16.25C12.55 16.25 13 16.7 13 17.25C13 17.8 12.55 18.25 12 18.25ZM12 14.25C11.45 14.25 11 13.8 11 13.25C11 12.7 11.45 12.25 12 12.25C12.55 12.25 13 12.7 13 13.25C13 13.8 12.55 14.25 12 14.25ZM16 18.25C15.45 18.25 15 17.8 15 17.25C15 16.7 15.45 16.25 16 16.25C16.55 16.25 17 16.7 17 17.25C17 17.8 16.55 18.25 16 18.25ZM16 14.25C15.45 14.25 15 13.8 15 13.25C15 12.7 15.45 12.25 16 12.25C16.55 12.25 17 12.7 17 13.25C17 13.8 16.55 14.25 16 14.25ZM19.5 9.75H4.5V8.18994C4.5 6.73994 5.62001 5.55994 7.04001 5.43994C7.13001 5.89994 7.52 6.25 8 6.25C8.49 6.25 8.88 5.88992 8.97 5.41992H15.03C15.12 5.88992 15.51 6.25 16 6.25C16.48 6.25 16.87 5.89994 16.96 5.43994C18.38 5.55994 19.5 6.74994 19.5 8.18994V9.75Z" fill="#DE96AB"/>
</svg>
