<svg width="120" height="120" viewBox="0 0 120 120" fill="none" xmlns="http://www.w3.org/2000/svg">
<path d="M3.30343 0.188909C3.88522 0.0171175 4.49518 -0.0382783 5.0984 0.0258905C5.70162 0.0900593 6.28627 0.272534 6.81891 0.562875C7.35155 0.853216 7.82172 1.24573 8.20254 1.71796C8.58335 2.19018 8.86734 2.73286 9.03825 3.31495L12.4225 14.773H102.598C113.92 14.773 122.565 25.3388 119.304 36.3722L109.121 70.8325C106.955 78.18 100.069 83.0782 92.4146 83.0782H36.0756C28.4209 83.0782 21.5416 78.18 19.3695 70.8325L0.189892 5.93024C-0.157518 4.7568 -0.024679 3.49342 0.559195 2.41791C1.14307 1.34241 2.13017 0.536695 3.30343 0.188909ZM24.6121 106.154C24.6121 102.482 26.0707 98.9606 28.6671 96.364C31.2635 93.7674 34.785 92.3087 38.4569 92.3087C42.1287 92.3087 45.6502 93.7674 48.2466 96.364C50.843 98.9606 52.3016 102.482 52.3016 106.154C52.3016 109.826 50.843 113.348 48.2466 115.945C45.6502 118.541 42.1287 120 38.4569 120C34.785 120 31.2635 118.541 28.6671 115.945C26.0707 113.348 24.6121 109.826 24.6121 106.154ZM73.838 106.154C73.838 104.336 74.1961 102.536 74.8918 100.856C75.5876 99.176 76.6074 97.6497 77.893 96.364C79.1786 95.0783 80.7049 94.0584 82.3846 93.3626C84.0643 92.6668 85.8646 92.3087 87.6828 92.3087C89.5009 92.3087 91.3012 92.6668 92.9809 93.3626C94.6607 94.0584 96.1869 95.0783 97.4725 96.364C98.7581 97.6497 99.7779 99.176 100.474 100.856C101.169 102.536 101.528 104.336 101.528 106.154C101.528 109.826 100.069 113.348 97.4725 115.945C94.8761 118.541 91.3546 120 87.6828 120C84.0109 120 80.4894 118.541 77.893 115.945C75.2966 113.348 73.838 109.826 73.838 106.154Z" fill="#DE96AB"/>
<path d="M52 60C52 60 55.8333 56 63.5 56C71.1667 56 75 60 75 60" stroke="white" stroke-width="2" stroke-linecap="round" stroke-linejoin="round"/>
<path d="M50 40C52.2091 40 54 37.9853 54 35.5C54 33.0147 52.2091 31 50 31C47.7909 31 46 33.0147 46 35.5C46 37.9853 47.7909 40 50 40Z" fill="white"/>
<path d="M77 40C79.2091 40 81 37.9853 81 35.5C81 33.0147 79.2091 31 77 31C74.7909 31 73 33.0147 73 35.5C73 37.9853 74.7909 40 77 40Z" fill="white"/>
</svg>
