<svg width="20" height="20" viewBox="0 0 20 20" fill="none" xmlns="http://www.w3.org/2000/svg">
<path id="Search" d="M17.9833 19.5L11.1583 12.675C10.6167 13.1083 9.99375 13.4514 9.28958 13.7042C8.58542 13.9569 7.83611 14.0833 7.04167 14.0833C5.07361 14.0833 3.40799 13.4017 2.04479 12.0385C0.681597 10.6753 0 9.00972 0 7.04167C0 5.07361 0.681597 3.40799 2.04479 2.04479C3.40799 0.681597 5.07361 0 7.04167 0C9.00972 0 10.6753 0.681597 12.0385 2.04479C13.4017 3.40799 14.0833 5.07361 14.0833 7.04167C14.0833 7.83611 13.9569 8.58542 13.7042 9.28958C13.4514 9.99375 13.1083 10.6167 12.675 11.1583L19.5 17.9833L17.9833 19.5ZM7.04167 11.9167C8.39583 11.9167 9.54688 11.4427 10.4948 10.4948C11.4427 9.54688 11.9167 8.39583 11.9167 7.04167C11.9167 5.6875 11.4427 4.53646 10.4948 3.58854C9.54688 2.64062 8.39583 2.16667 7.04167 2.16667C5.6875 2.16667 4.53646 2.64062 3.58854 3.58854C2.64062 4.53646 2.16667 5.6875 2.16667 7.04167C2.16667 8.39583 2.64062 9.54688 3.58854 10.4948C4.53646 11.4427 5.6875 11.9167 7.04167 11.9167Z" fill="#FEF7FF"/>
</svg>
