<svg width="80" height="80" viewBox="0 0 80 80" fill="none" xmlns="http://www.w3.org/2000/svg">
<path d="M55.1 31.5633C56.0767 32.54 56.0767 34.1234 55.1 35.1001L38.4333 51.7668C37.9467 52.2534 37.3067 52.5 36.6667 52.5C36.0267 52.5 35.3867 52.2568 34.9 51.7668L24.9 41.7668C23.9233 40.7901 23.9233 39.2066 24.9 38.23C25.8767 37.2533 27.46 37.2533 28.4367 38.23L36.67 46.4632L51.57 31.5633C52.5434 30.59 54.1233 30.59 55.1 31.5633ZM72.5 40C72.5 57.92 57.92 72.5 40 72.5C22.08 72.5 7.5 57.92 7.5 40C7.5 22.08 22.08 7.5 40 7.5C57.92 7.5 72.5 22.08 72.5 40ZM67.5 40C67.5 24.8367 55.1633 12.5 40 12.5C24.8367 12.5 12.5 24.8367 12.5 40C12.5 55.1633 24.8367 67.5 40 67.5C55.1633 67.5 67.5 55.1633 67.5 40Z" fill="#5966AA"/>
</svg>
