<svg width="77" height="77" viewBox="0 0 77 77" fill="none" xmlns="http://www.w3.org/2000/svg">
<path d="M47.9561 11.8462L48.4472 26.9112C48.7477 36.1279 55.2532 43.5195 63.3609 43.8564L77 44.4231L63.3609 44.9898C55.2532 45.3267 48.7477 52.7183 48.4472 61.935L47.9561 77L47.4649 61.935C47.1645 52.7183 40.659 45.3267 32.5513 44.9898L18.9122 44.4231L32.5513 43.8564C40.659 43.5195 47.1645 36.1279 47.4649 26.9112L47.9561 11.8462Z" fill="#DE96AB"/>
<path d="M19.5877 0L19.919 10.2716C20.1216 16.5557 24.509 21.5955 29.977 21.8252L39.1754 22.2115L29.977 22.5979C24.509 22.8276 20.1216 27.8674 19.919 34.1515L19.5877 44.4231L19.2565 34.1515C19.0538 27.8674 14.6664 22.8276 9.19844 22.5979L0 22.2115L9.19843 21.8252C14.6664 21.5955 19.0538 16.5557 19.2565 10.2716L19.5877 0Z" fill="#DE96AB"/>
</svg>
