<svg width="323" height="186" viewBox="0 0 323 186" fill="none" xmlns="http://www.w3.org/2000/svg">
<rect width="323" height="186" rx="12" fill="#B7BBD9"/>
<path d="M22.4409 128.336V139H21.02L15.6514 130.775V139H14.2378V128.336H15.6514L21.042 136.583V128.336H22.4409ZM29.4136 137.645V133.565C29.4136 133.253 29.3501 132.982 29.2231 132.752C29.1011 132.518 28.9155 132.337 28.6665 132.21C28.4175 132.083 28.1099 132.02 27.7437 132.02C27.4019 132.02 27.1016 132.079 26.8428 132.196C26.5889 132.313 26.3887 132.467 26.2422 132.657C26.1006 132.848 26.0298 133.053 26.0298 133.272H24.6748C24.6748 132.989 24.748 132.708 24.8945 132.43C25.041 132.152 25.251 131.9 25.5244 131.676C25.8027 131.446 26.1348 131.266 26.5205 131.134C26.9111 130.997 27.3457 130.929 27.8242 130.929C28.4004 130.929 28.9082 131.026 29.3477 131.222C29.792 131.417 30.1387 131.712 30.3877 132.108C30.6416 132.499 30.7686 132.989 30.7686 133.58V137.271C30.7686 137.535 30.7905 137.816 30.8345 138.114C30.8833 138.412 30.9541 138.668 31.0469 138.883V139H29.6333C29.5649 138.844 29.5112 138.636 29.4722 138.377C29.4331 138.114 29.4136 137.87 29.4136 137.645ZM29.6479 134.195L29.6626 135.147H28.293C27.9072 135.147 27.563 135.179 27.2603 135.243C26.9575 135.301 26.7036 135.392 26.4985 135.514C26.2935 135.636 26.1372 135.79 26.0298 135.975C25.9224 136.156 25.8687 136.368 25.8687 136.612C25.8687 136.861 25.9248 137.088 26.0371 137.293C26.1494 137.499 26.3179 137.662 26.5425 137.784C26.772 137.901 27.0527 137.96 27.3848 137.96C27.7998 137.96 28.166 137.872 28.4834 137.696C28.8008 137.521 29.0522 137.306 29.2378 137.052C29.4282 136.798 29.5308 136.551 29.5454 136.312L30.124 136.964C30.0898 137.169 29.9971 137.396 29.8457 137.645C29.6943 137.894 29.4917 138.133 29.2378 138.363C28.9888 138.587 28.6909 138.775 28.3442 138.927C28.0024 139.073 27.6167 139.146 27.187 139.146C26.6499 139.146 26.1787 139.042 25.7734 138.832C25.373 138.622 25.0605 138.341 24.8359 137.989C24.6162 137.633 24.5063 137.235 24.5063 136.795C24.5063 136.371 24.5894 135.997 24.7554 135.675C24.9214 135.348 25.1606 135.077 25.4731 134.862C25.7856 134.642 26.1616 134.476 26.6011 134.364C27.0405 134.251 27.5312 134.195 28.0732 134.195H29.6479ZM34.2476 132.65V139H32.8853V131.075H34.1743L34.2476 132.65ZM33.9692 134.737L33.3394 134.715C33.3442 134.173 33.415 133.673 33.5518 133.214C33.6885 132.75 33.8911 132.347 34.1597 132.005C34.4282 131.664 34.7627 131.4 35.1631 131.214C35.5635 131.024 36.0273 130.929 36.5547 130.929C36.9258 130.929 37.2676 130.982 37.5801 131.09C37.8926 131.192 38.1636 131.356 38.3931 131.581C38.6226 131.805 38.8008 132.093 38.9277 132.445C39.0547 132.796 39.1182 133.221 39.1182 133.719V139H37.7632V133.785C37.7632 133.37 37.6924 133.038 37.5508 132.789C37.4141 132.54 37.2188 132.359 36.9648 132.247C36.7109 132.13 36.4131 132.071 36.0713 132.071C35.6709 132.071 35.3364 132.142 35.0679 132.284C34.7993 132.425 34.5845 132.621 34.4233 132.87C34.2622 133.119 34.145 133.404 34.0718 133.727C34.0034 134.044 33.9692 134.381 33.9692 134.737ZM39.1035 133.99L38.1953 134.269C38.2002 133.834 38.271 133.417 38.4077 133.016C38.5493 132.616 38.752 132.259 39.0156 131.947C39.2842 131.634 39.6138 131.388 40.0044 131.207C40.395 131.021 40.8418 130.929 41.3447 130.929C41.7695 130.929 42.1455 130.985 42.4727 131.097C42.8047 131.209 43.083 131.383 43.3076 131.617C43.5371 131.847 43.7104 132.142 43.8276 132.503C43.9448 132.865 44.0034 133.294 44.0034 133.792V139H42.6411V133.778C42.6411 133.333 42.5703 132.989 42.4287 132.745C42.292 132.496 42.0967 132.323 41.8428 132.225C41.5938 132.123 41.2959 132.071 40.9492 132.071C40.6514 132.071 40.3877 132.123 40.1582 132.225C39.9287 132.328 39.7358 132.469 39.5796 132.65C39.4233 132.826 39.3037 133.028 39.2207 133.258C39.1426 133.487 39.1035 133.731 39.1035 133.99ZM49.3428 139.146C48.791 139.146 48.2905 139.054 47.8413 138.868C47.397 138.678 47.0137 138.412 46.6914 138.07C46.374 137.728 46.1299 137.323 45.959 136.854C45.7881 136.385 45.7026 135.873 45.7026 135.316V135.008C45.7026 134.364 45.7979 133.79 45.9883 133.287C46.1787 132.779 46.4375 132.35 46.7646 131.998C47.0918 131.646 47.4629 131.38 47.8779 131.2C48.293 131.019 48.7227 130.929 49.167 130.929C49.7334 130.929 50.2217 131.026 50.6318 131.222C51.0469 131.417 51.3862 131.69 51.6499 132.042C51.9136 132.389 52.1089 132.799 52.2358 133.272C52.3628 133.741 52.4263 134.254 52.4263 134.811V135.418H46.5083V134.312H51.0713V134.21C51.0518 133.858 50.9785 133.517 50.8516 133.185C50.7295 132.853 50.5342 132.579 50.2656 132.364C49.9971 132.149 49.6309 132.042 49.167 132.042C48.8594 132.042 48.5762 132.108 48.3174 132.24C48.0586 132.367 47.8364 132.557 47.6509 132.811C47.4653 133.065 47.3213 133.375 47.2188 133.741C47.1162 134.107 47.0649 134.53 47.0649 135.008V135.316C47.0649 135.692 47.1162 136.046 47.2188 136.378C47.3262 136.705 47.48 136.993 47.6802 137.242C47.8853 137.491 48.1318 137.687 48.4199 137.828C48.7129 137.97 49.0449 138.041 49.416 138.041C49.8945 138.041 50.2998 137.943 50.6318 137.748C50.9639 137.552 51.2544 137.291 51.5034 136.964L52.3237 137.616C52.1528 137.875 51.9355 138.121 51.6719 138.355C51.4082 138.59 51.0835 138.78 50.6978 138.927C50.3169 139.073 49.8652 139.146 49.3428 139.146ZM57.3701 135.125V134.957C57.3701 134.386 57.4531 133.856 57.6191 133.368C57.7852 132.875 58.0244 132.447 58.3369 132.086C58.6494 131.72 59.0278 131.437 59.4722 131.236C59.9165 131.031 60.4146 130.929 60.9663 130.929C61.5229 130.929 62.0234 131.031 62.4678 131.236C62.917 131.437 63.2979 131.72 63.6104 132.086C63.9277 132.447 64.1694 132.875 64.3354 133.368C64.5015 133.856 64.5845 134.386 64.5845 134.957V135.125C64.5845 135.697 64.5015 136.227 64.3354 136.715C64.1694 137.203 63.9277 137.63 63.6104 137.997C63.2979 138.358 62.9194 138.641 62.4751 138.846C62.0356 139.046 61.5376 139.146 60.981 139.146C60.4243 139.146 59.9238 139.046 59.4795 138.846C59.0352 138.641 58.6543 138.358 58.3369 137.997C58.0244 137.63 57.7852 137.203 57.6191 136.715C57.4531 136.227 57.3701 135.697 57.3701 135.125ZM58.7251 134.957V135.125C58.7251 135.521 58.7715 135.895 58.8643 136.246C58.957 136.593 59.0962 136.9 59.2817 137.169C59.4722 137.438 59.709 137.65 59.9922 137.806C60.2754 137.958 60.605 138.033 60.981 138.033C61.3521 138.033 61.6768 137.958 61.9551 137.806C62.2383 137.65 62.4727 137.438 62.6582 137.169C62.8438 136.9 62.9829 136.593 63.0757 136.246C63.1733 135.895 63.2222 135.521 63.2222 135.125V134.957C63.2222 134.566 63.1733 134.198 63.0757 133.851C62.9829 133.5 62.8413 133.189 62.6509 132.921C62.4653 132.647 62.231 132.433 61.9478 132.276C61.6694 132.12 61.3423 132.042 60.9663 132.042C60.5952 132.042 60.2681 132.12 59.9849 132.276C59.7065 132.433 59.4722 132.647 59.2817 132.921C59.0962 133.189 58.957 133.5 58.8643 133.851C58.7715 134.198 58.7251 134.566 58.7251 134.957ZM68.3052 139H66.9502V130.24C66.9502 129.669 67.0527 129.188 67.2578 128.797C67.4678 128.402 67.7681 128.104 68.1587 127.904C68.5493 127.699 69.0132 127.596 69.5503 127.596C69.7065 127.596 69.8628 127.606 70.019 127.625C70.1802 127.645 70.3364 127.674 70.4878 127.713L70.4146 128.819C70.312 128.795 70.1948 128.778 70.063 128.768C69.936 128.758 69.8091 128.753 69.6821 128.753C69.394 128.753 69.145 128.812 68.9351 128.929C68.73 129.042 68.5737 129.208 68.4663 129.427C68.3589 129.647 68.3052 129.918 68.3052 130.24V139ZM69.9897 131.075V132.115H65.6978V131.075H69.9897ZM81.8623 135.609H83.2686C83.1953 136.283 83.0024 136.886 82.6899 137.418C82.3774 137.95 81.9355 138.373 81.3643 138.685C80.793 138.993 80.0801 139.146 79.2256 139.146C78.6006 139.146 78.0317 139.029 77.519 138.795C77.0112 138.561 76.5742 138.229 76.208 137.799C75.8418 137.364 75.5586 136.844 75.3584 136.239C75.1631 135.628 75.0654 134.95 75.0654 134.203V133.141C75.0654 132.394 75.1631 131.717 75.3584 131.112C75.5586 130.501 75.8442 129.979 76.2153 129.544C76.5913 129.11 77.043 128.775 77.5703 128.541C78.0977 128.307 78.6909 128.189 79.3501 128.189C80.1558 128.189 80.8369 128.341 81.3936 128.644C81.9502 128.946 82.3823 129.366 82.6899 129.903C83.0024 130.436 83.1953 131.053 83.2686 131.756H81.8623C81.7939 131.258 81.667 130.831 81.4814 130.475C81.2959 130.113 81.0322 129.835 80.6904 129.64C80.3486 129.444 79.9019 129.347 79.3501 129.347C78.8765 129.347 78.459 129.437 78.0977 129.618C77.7412 129.798 77.4409 130.055 77.1968 130.387C76.9575 130.719 76.7769 131.117 76.6548 131.581C76.5327 132.044 76.4717 132.56 76.4717 133.126V134.203C76.4717 134.725 76.5254 135.216 76.6328 135.675C76.7451 136.134 76.9136 136.537 77.1382 136.883C77.3628 137.23 77.6484 137.503 77.9951 137.704C78.3418 137.899 78.752 137.997 79.2256 137.997C79.8262 137.997 80.3047 137.901 80.6611 137.711C81.0176 137.521 81.2861 137.247 81.4668 136.891C81.6523 136.534 81.7842 136.107 81.8623 135.609ZM89.8384 137.169V131.075H91.2007V139H89.9043L89.8384 137.169ZM90.0947 135.499L90.6587 135.484C90.6587 136.012 90.6025 136.5 90.4902 136.949C90.3828 137.394 90.207 137.779 89.9629 138.106C89.7188 138.434 89.3989 138.69 89.0034 138.875C88.6079 139.056 88.127 139.146 87.5605 139.146C87.1748 139.146 86.8208 139.09 86.4985 138.978C86.1812 138.866 85.9077 138.692 85.6782 138.458C85.4487 138.224 85.2705 137.918 85.1436 137.542C85.0215 137.167 84.9604 136.715 84.9604 136.188V131.075H86.3154V136.202C86.3154 136.559 86.3545 136.854 86.4326 137.088C86.5156 137.318 86.6255 137.501 86.7622 137.638C86.9038 137.77 87.0601 137.862 87.231 137.916C87.4067 137.97 87.5874 137.997 87.7729 137.997C88.3491 137.997 88.8057 137.887 89.1426 137.667C89.4795 137.442 89.7212 137.142 89.8677 136.766C90.019 136.385 90.0947 135.963 90.0947 135.499ZM97.8804 136.898C97.8804 136.703 97.8364 136.522 97.7485 136.356C97.6655 136.185 97.4922 136.031 97.2285 135.895C96.9697 135.753 96.5791 135.631 96.0566 135.528C95.6172 135.436 95.2192 135.326 94.8628 135.199C94.5112 135.072 94.2109 134.918 93.9619 134.737C93.7178 134.557 93.5298 134.344 93.3979 134.1C93.2661 133.856 93.2002 133.57 93.2002 133.243C93.2002 132.931 93.2686 132.635 93.4053 132.357C93.5469 132.079 93.7446 131.832 93.9985 131.617C94.2573 131.402 94.5674 131.234 94.9287 131.112C95.29 130.99 95.6929 130.929 96.1372 130.929C96.772 130.929 97.314 131.041 97.7632 131.266C98.2124 131.49 98.5566 131.791 98.7959 132.167C99.0352 132.538 99.1548 132.95 99.1548 133.404H97.7998C97.7998 133.185 97.7339 132.972 97.6021 132.767C97.4751 132.557 97.2871 132.384 97.0381 132.247C96.7939 132.11 96.4937 132.042 96.1372 132.042C95.7612 132.042 95.4561 132.101 95.2217 132.218C94.9922 132.33 94.8237 132.474 94.7163 132.65C94.6138 132.826 94.5625 133.011 94.5625 133.207C94.5625 133.353 94.5869 133.485 94.6357 133.602C94.6895 133.714 94.7822 133.819 94.9141 133.917C95.0459 134.01 95.2314 134.098 95.4707 134.181C95.71 134.264 96.0151 134.347 96.3862 134.43C97.0356 134.576 97.5703 134.752 97.9902 134.957C98.4102 135.162 98.7227 135.414 98.9277 135.711C99.1328 136.009 99.2354 136.371 99.2354 136.795C99.2354 137.142 99.1621 137.459 99.0156 137.748C98.874 138.036 98.6665 138.285 98.3931 138.495C98.1245 138.7 97.8022 138.861 97.4263 138.978C97.0552 139.09 96.6377 139.146 96.1738 139.146C95.4756 139.146 94.8848 139.022 94.4014 138.773C93.918 138.524 93.5518 138.202 93.3027 137.806C93.0537 137.411 92.9292 136.993 92.9292 136.554H94.2915C94.311 136.925 94.4185 137.22 94.6138 137.44C94.8091 137.655 95.0483 137.809 95.3315 137.901C95.6147 137.989 95.8955 138.033 96.1738 138.033C96.5449 138.033 96.855 137.984 97.104 137.887C97.3579 137.789 97.5508 137.655 97.6826 137.484C97.8145 137.313 97.8804 137.118 97.8804 136.898ZM104.333 131.075V132.115H100.048V131.075H104.333ZM101.499 129.149H102.854V137.037C102.854 137.306 102.895 137.508 102.978 137.645C103.061 137.782 103.168 137.872 103.3 137.916C103.432 137.96 103.574 137.982 103.725 137.982C103.837 137.982 103.955 137.972 104.077 137.953C104.204 137.928 104.299 137.909 104.362 137.894L104.37 139C104.262 139.034 104.121 139.066 103.945 139.095C103.774 139.129 103.566 139.146 103.322 139.146C102.99 139.146 102.685 139.081 102.407 138.949C102.128 138.817 101.906 138.597 101.74 138.29C101.579 137.977 101.499 137.557 101.499 137.03V129.149ZM105.417 135.125V134.957C105.417 134.386 105.5 133.856 105.666 133.368C105.832 132.875 106.071 132.447 106.384 132.086C106.696 131.72 107.075 131.437 107.519 131.236C107.963 131.031 108.461 130.929 109.013 130.929C109.57 130.929 110.07 131.031 110.515 131.236C110.964 131.437 111.345 131.72 111.657 132.086C111.975 132.447 112.216 132.875 112.382 133.368C112.548 133.856 112.631 134.386 112.631 134.957V135.125C112.631 135.697 112.548 136.227 112.382 136.715C112.216 137.203 111.975 137.63 111.657 137.997C111.345 138.358 110.966 138.641 110.522 138.846C110.083 139.046 109.584 139.146 109.028 139.146C108.471 139.146 107.971 139.046 107.526 138.846C107.082 138.641 106.701 138.358 106.384 137.997C106.071 137.63 105.832 137.203 105.666 136.715C105.5 136.227 105.417 135.697 105.417 135.125ZM106.772 134.957V135.125C106.772 135.521 106.818 135.895 106.911 136.246C107.004 136.593 107.143 136.9 107.329 137.169C107.519 137.438 107.756 137.65 108.039 137.806C108.322 137.958 108.652 138.033 109.028 138.033C109.399 138.033 109.724 137.958 110.002 137.806C110.285 137.65 110.52 137.438 110.705 137.169C110.891 136.9 111.03 136.593 111.123 136.246C111.22 135.895 111.269 135.521 111.269 135.125V134.957C111.269 134.566 111.22 134.198 111.123 133.851C111.03 133.5 110.888 133.189 110.698 132.921C110.512 132.647 110.278 132.433 109.995 132.276C109.716 132.12 109.389 132.042 109.013 132.042C108.642 132.042 108.315 132.12 108.032 132.276C107.753 132.433 107.519 132.647 107.329 132.921C107.143 133.189 107.004 133.5 106.911 133.851C106.818 134.198 106.772 134.566 106.772 134.957ZM115.678 132.65V139H114.316V131.075H115.605L115.678 132.65ZM115.4 134.737L114.77 134.715C114.775 134.173 114.846 133.673 114.982 133.214C115.119 132.75 115.322 132.347 115.59 132.005C115.859 131.664 116.193 131.4 116.594 131.214C116.994 131.024 117.458 130.929 117.985 130.929C118.356 130.929 118.698 130.982 119.011 131.09C119.323 131.192 119.594 131.356 119.824 131.581C120.053 131.805 120.231 132.093 120.358 132.445C120.485 132.796 120.549 133.221 120.549 133.719V139H119.194V133.785C119.194 133.37 119.123 133.038 118.981 132.789C118.845 132.54 118.649 132.359 118.396 132.247C118.142 132.13 117.844 132.071 117.502 132.071C117.102 132.071 116.767 132.142 116.499 132.284C116.23 132.425 116.015 132.621 115.854 132.87C115.693 133.119 115.576 133.404 115.502 133.727C115.434 134.044 115.4 134.381 115.4 134.737ZM120.534 133.99L119.626 134.269C119.631 133.834 119.702 133.417 119.838 133.016C119.98 132.616 120.183 132.259 120.446 131.947C120.715 131.634 121.044 131.388 121.435 131.207C121.826 131.021 122.272 130.929 122.775 130.929C123.2 130.929 123.576 130.985 123.903 131.097C124.235 131.209 124.514 131.383 124.738 131.617C124.968 131.847 125.141 132.142 125.258 132.503C125.375 132.865 125.434 133.294 125.434 133.792V139H124.072V133.778C124.072 133.333 124.001 132.989 123.859 132.745C123.723 132.496 123.527 132.323 123.273 132.225C123.024 132.123 122.727 132.071 122.38 132.071C122.082 132.071 121.818 132.123 121.589 132.225C121.359 132.328 121.167 132.469 121.01 132.65C120.854 132.826 120.734 133.028 120.651 133.258C120.573 133.487 120.534 133.731 120.534 133.99ZM130.773 139.146C130.222 139.146 129.721 139.054 129.272 138.868C128.828 138.678 128.444 138.412 128.122 138.07C127.805 137.728 127.561 137.323 127.39 136.854C127.219 136.385 127.133 135.873 127.133 135.316V135.008C127.133 134.364 127.229 133.79 127.419 133.287C127.609 132.779 127.868 132.35 128.195 131.998C128.522 131.646 128.894 131.38 129.309 131.2C129.724 131.019 130.153 130.929 130.598 130.929C131.164 130.929 131.652 131.026 132.062 131.222C132.478 131.417 132.817 131.69 133.081 132.042C133.344 132.389 133.54 132.799 133.667 133.272C133.793 133.741 133.857 134.254 133.857 134.811V135.418H127.939V134.312H132.502V134.21C132.482 133.858 132.409 133.517 132.282 133.185C132.16 132.853 131.965 132.579 131.696 132.364C131.428 132.149 131.062 132.042 130.598 132.042C130.29 132.042 130.007 132.108 129.748 132.24C129.489 132.367 129.267 132.557 129.082 132.811C128.896 133.065 128.752 133.375 128.649 133.741C128.547 134.107 128.496 134.53 128.496 135.008V135.316C128.496 135.692 128.547 136.046 128.649 136.378C128.757 136.705 128.911 136.993 129.111 137.242C129.316 137.491 129.562 137.687 129.851 137.828C130.144 137.97 130.476 138.041 130.847 138.041C131.325 138.041 131.73 137.943 132.062 137.748C132.395 137.552 132.685 137.291 132.934 136.964L133.754 137.616C133.583 137.875 133.366 138.121 133.103 138.355C132.839 138.59 132.514 138.78 132.128 138.927C131.748 139.073 131.296 139.146 130.773 139.146ZM136.794 132.32V139H135.439V131.075H136.757L136.794 132.32ZM139.27 131.031L139.262 132.291C139.15 132.267 139.042 132.252 138.94 132.247C138.842 132.237 138.73 132.232 138.603 132.232C138.291 132.232 138.015 132.281 137.775 132.379C137.536 132.477 137.333 132.613 137.167 132.789C137.001 132.965 136.87 133.175 136.772 133.419C136.679 133.658 136.618 133.922 136.589 134.21L136.208 134.43C136.208 133.951 136.254 133.502 136.347 133.082C136.445 132.662 136.594 132.291 136.794 131.969C136.994 131.642 137.248 131.388 137.556 131.207C137.868 131.021 138.239 130.929 138.669 130.929C138.767 130.929 138.879 130.941 139.006 130.965C139.133 130.985 139.221 131.007 139.27 131.031Z" fill="#5A5A5A"/>
<path d="M309.371 169.246L309.342 167C310.299 167.117 311.148 167.394 311.891 167.83C312.626 168.266 313.202 168.849 313.619 169.578C314.029 170.307 314.221 171.176 314.195 172.186C314.176 173.012 313.984 173.696 313.619 174.236C313.255 174.77 312.779 175.18 312.193 175.467C311.607 175.747 310.963 175.926 310.26 176.004C309.557 176.076 308.854 176.063 308.15 175.965L305.631 175.584C304.869 175.467 304.124 175.271 303.395 174.998C302.659 174.718 302.001 174.347 301.422 173.885C300.842 173.423 300.387 172.863 300.055 172.205C299.723 171.541 299.566 170.776 299.586 169.91C299.605 168.934 299.84 168.159 300.289 167.586C300.732 167.007 301.324 166.596 302.066 166.355C302.802 166.115 303.609 166.001 304.488 166.014L304.479 168.328C304.003 168.309 303.548 168.325 303.111 168.377C302.669 168.429 302.304 168.582 302.018 168.836C301.731 169.083 301.578 169.497 301.559 170.076C301.539 170.636 301.653 171.108 301.9 171.492C302.141 171.87 302.467 172.179 302.877 172.42C303.281 172.661 303.723 172.846 304.205 172.977C304.687 173.107 305.156 173.204 305.611 173.27L308.16 173.65C308.525 173.702 308.938 173.742 309.4 173.768C309.856 173.787 310.296 173.758 310.719 173.68C311.135 173.602 311.487 173.436 311.773 173.182C312.053 172.928 312.203 172.544 312.223 172.029C312.255 171.398 312.145 170.9 311.891 170.535C311.637 170.164 311.288 169.884 310.846 169.695C310.403 169.5 309.911 169.35 309.371 169.246ZM301.852 158.826L314 164.236L314 166.717L299.781 159.881L299.781 158.318L301.852 158.826ZM314 158.24L301.627 159.48L299.781 159.305L299.781 157.811L314 155.896L314 158.24ZM308.717 157.283L310.709 157.645L310.709 164.08L308.717 163.729L308.717 157.283ZM299.781 151.814L299.791 147.781C299.817 146.935 300.006 146.232 300.357 145.672C300.702 145.105 301.184 144.692 301.803 144.432C302.421 144.165 303.15 144.067 303.99 144.139C304.68 144.197 305.292 144.357 305.826 144.617C306.36 144.878 306.819 145.232 307.203 145.682C307.587 146.131 307.91 146.668 308.17 147.293L308.541 148.045L308.541 151.688L306.549 151.355L306.568 148.982C306.562 148.494 306.451 148.074 306.236 147.723C306.021 147.365 305.729 147.078 305.357 146.863C304.986 146.648 304.57 146.515 304.107 146.463C303.73 146.411 303.368 146.414 303.023 146.473C302.672 146.525 302.382 146.661 302.154 146.883C301.926 147.098 301.803 147.426 301.783 147.869L301.773 149.842L314 151.971L314 154.285L299.781 151.814ZM314 147.801L307.613 149.334L307.604 147.02L313.863 145.33L314 145.33L314 147.801ZM314 140.242L314 142.781L312.018 142.41L312.037 140.145C312.044 139.311 311.871 138.634 311.52 138.113C311.168 137.586 310.693 137.182 310.094 136.902C309.488 136.616 308.805 136.414 308.043 136.297L305.719 135.955C305.257 135.896 304.798 135.867 304.342 135.867C303.886 135.867 303.469 135.929 303.092 136.053C302.708 136.176 302.398 136.395 302.164 136.707C301.93 137.02 301.803 137.462 301.783 138.035L301.773 140.711L299.781 140.359L299.791 137.947C299.811 137.101 299.986 136.382 300.318 135.789C300.65 135.197 301.093 134.728 301.646 134.383C302.2 134.038 302.828 133.807 303.531 133.689C304.234 133.572 304.973 133.563 305.748 133.66L308.043 134.002C308.896 134.139 309.687 134.37 310.416 134.695C311.139 135.014 311.77 135.434 312.311 135.955C312.844 136.469 313.261 137.085 313.561 137.801C313.86 138.517 314.007 139.331 314 140.242ZM299.781 138.982L314 141.453L314 143.768L299.781 141.297L299.781 138.982Z" fill="#5A5A5A"/>
<path d="M159.626 137.872H159.736C160.371 137.877 160.932 137.789 161.42 137.608C161.914 137.423 162.336 137.159 162.688 136.817C163.044 136.476 163.332 136.063 163.552 135.58C163.771 135.096 163.925 134.554 164.013 133.954L164.24 132.313C164.274 132.044 164.282 131.742 164.262 131.405C164.248 131.063 164.189 130.736 164.086 130.423C163.989 130.111 163.833 129.85 163.618 129.64C163.403 129.43 163.112 129.32 162.746 129.31C162.399 129.295 162.089 129.361 161.816 129.508C161.547 129.654 161.315 129.852 161.12 130.101C160.93 130.35 160.778 130.628 160.666 130.936C160.554 131.239 160.483 131.544 160.454 131.852C160.424 132.115 160.424 132.389 160.454 132.672C160.488 132.95 160.559 133.214 160.666 133.463C160.778 133.707 160.935 133.907 161.135 134.063C161.34 134.22 161.604 134.303 161.926 134.312C162.238 134.322 162.534 134.269 162.812 134.151C163.09 134.029 163.339 133.863 163.559 133.653C163.784 133.443 163.972 133.207 164.123 132.943C164.279 132.674 164.392 132.396 164.46 132.108L165.09 132.101C165.036 132.525 164.914 132.938 164.724 133.338C164.533 133.739 164.284 134.1 163.977 134.422C163.669 134.74 163.317 134.991 162.922 135.177C162.531 135.362 162.109 135.45 161.655 135.44C161.176 135.426 160.769 135.316 160.432 135.111C160.095 134.906 159.824 134.635 159.619 134.298C159.418 133.961 159.279 133.587 159.201 133.177C159.123 132.767 159.104 132.35 159.143 131.925C159.187 131.427 159.301 130.951 159.487 130.497C159.677 130.042 159.929 129.64 160.241 129.288C160.554 128.937 160.925 128.663 161.354 128.468C161.789 128.268 162.275 128.175 162.812 128.189C163.393 128.204 163.874 128.343 164.255 128.607C164.636 128.866 164.929 129.205 165.134 129.625C165.339 130.045 165.471 130.504 165.529 131.002C165.588 131.5 165.588 131.993 165.529 132.481L165.471 132.987C165.383 133.661 165.244 134.3 165.053 134.906C164.863 135.511 164.614 136.065 164.306 136.568C163.999 137.066 163.625 137.499 163.186 137.865C162.751 138.231 162.243 138.517 161.662 138.722C161.081 138.922 160.419 139.022 159.677 139.022H159.509L159.626 137.872ZM172.875 128.336L166.555 139.916H165.354L171.682 128.336H172.875ZM178.42 128.277L176.604 139H175.278L176.845 130.006L174.011 130.995L174.245 129.713L178.186 128.277H178.42ZM183.056 133.917L181.965 133.624L183.312 128.336H188.637L188.439 129.588H184.257L183.437 132.496C183.701 132.34 183.979 132.223 184.272 132.145C184.57 132.066 184.873 132.03 185.18 132.035C185.673 132.04 186.093 132.142 186.44 132.342C186.792 132.538 187.075 132.801 187.29 133.133C187.504 133.465 187.653 133.841 187.736 134.261C187.819 134.676 187.841 135.106 187.802 135.55C187.758 136.068 187.641 136.549 187.451 136.993C187.26 137.433 187.004 137.816 186.682 138.143C186.364 138.47 185.986 138.724 185.546 138.905C185.107 139.085 184.619 139.168 184.082 139.154C183.637 139.149 183.239 139.073 182.888 138.927C182.541 138.775 182.243 138.568 181.994 138.304C181.75 138.041 181.56 137.73 181.423 137.374C181.286 137.013 181.208 136.617 181.188 136.188H182.434C182.458 136.539 182.531 136.854 182.653 137.132C182.78 137.406 182.966 137.623 183.21 137.784C183.454 137.945 183.764 138.031 184.14 138.041C184.497 138.045 184.812 137.982 185.085 137.85C185.358 137.713 185.593 137.528 185.788 137.293C185.983 137.059 186.137 136.793 186.25 136.495C186.362 136.192 186.435 135.88 186.469 135.558C186.499 135.27 186.489 134.991 186.44 134.723C186.391 134.449 186.301 134.205 186.169 133.99C186.037 133.771 185.859 133.595 185.634 133.463C185.41 133.331 185.136 133.26 184.814 133.25C184.462 133.241 184.147 133.297 183.869 133.419C183.596 133.536 183.325 133.702 183.056 133.917Z" fill="#5A5A5A"/>
<path d="M20.5806 158.818V160.444C20.5806 161.318 20.5024 162.056 20.3462 162.656C20.1899 163.257 19.9653 163.74 19.6724 164.106C19.3794 164.473 19.0254 164.739 18.6104 164.905C18.2002 165.066 17.7363 165.146 17.2188 165.146C16.8086 165.146 16.4302 165.095 16.0835 164.993C15.7368 164.89 15.4243 164.727 15.146 164.502C14.8726 164.272 14.6382 163.975 14.4429 163.608C14.2476 163.242 14.0986 162.798 13.9961 162.275C13.8936 161.753 13.8423 161.143 13.8423 160.444V158.818C13.8423 157.944 13.9204 157.212 14.0767 156.621C14.2378 156.03 14.4648 155.557 14.7578 155.2C15.0508 154.839 15.4023 154.58 15.8125 154.424C16.2275 154.268 16.6914 154.189 17.2041 154.189C17.6191 154.189 18 154.241 18.3467 154.343C18.6982 154.441 19.0107 154.6 19.2842 154.819C19.5576 155.034 19.7896 155.322 19.98 155.684C20.1753 156.04 20.3242 156.477 20.4268 156.995C20.5293 157.512 20.5806 158.12 20.5806 158.818ZM19.2183 160.664V158.591C19.2183 158.113 19.189 157.693 19.1304 157.332C19.0767 156.965 18.9961 156.653 18.8887 156.394C18.7812 156.135 18.6445 155.925 18.4785 155.764C18.3174 155.603 18.1294 155.486 17.9146 155.413C17.7046 155.334 17.4678 155.295 17.2041 155.295C16.8818 155.295 16.5962 155.356 16.3472 155.479C16.0981 155.596 15.8882 155.784 15.7173 156.042C15.5513 156.301 15.4243 156.641 15.3364 157.061C15.2485 157.48 15.2046 157.991 15.2046 158.591V160.664C15.2046 161.143 15.2314 161.565 15.2852 161.931C15.3438 162.297 15.4292 162.615 15.5415 162.883C15.6538 163.147 15.7905 163.364 15.9517 163.535C16.1128 163.706 16.2983 163.833 16.5083 163.916C16.7231 163.994 16.96 164.033 17.2188 164.033C17.5508 164.033 17.8413 163.97 18.0903 163.843C18.3394 163.716 18.5469 163.518 18.7129 163.25C18.8838 162.976 19.0107 162.627 19.0938 162.202C19.1768 161.772 19.2183 161.26 19.2183 160.664ZM29.0181 158.818V160.444C29.0181 161.318 28.9399 162.056 28.7837 162.656C28.6274 163.257 28.4028 163.74 28.1099 164.106C27.8169 164.473 27.4629 164.739 27.0479 164.905C26.6377 165.066 26.1738 165.146 25.6562 165.146C25.2461 165.146 24.8677 165.095 24.521 164.993C24.1743 164.89 23.8618 164.727 23.5835 164.502C23.3101 164.272 23.0757 163.975 22.8804 163.608C22.6851 163.242 22.5361 162.798 22.4336 162.275C22.3311 161.753 22.2798 161.143 22.2798 160.444V158.818C22.2798 157.944 22.3579 157.212 22.5142 156.621C22.6753 156.03 22.9023 155.557 23.1953 155.2C23.4883 154.839 23.8398 154.58 24.25 154.424C24.665 154.268 25.1289 154.189 25.6416 154.189C26.0566 154.189 26.4375 154.241 26.7842 154.343C27.1357 154.441 27.4482 154.6 27.7217 154.819C27.9951 155.034 28.2271 155.322 28.4175 155.684C28.6128 156.04 28.7617 156.477 28.8643 156.995C28.9668 157.512 29.0181 158.12 29.0181 158.818ZM27.6558 160.664V158.591C27.6558 158.113 27.6265 157.693 27.5679 157.332C27.5142 156.965 27.4336 156.653 27.3262 156.394C27.2188 156.135 27.082 155.925 26.916 155.764C26.7549 155.603 26.5669 155.486 26.3521 155.413C26.1421 155.334 25.9053 155.295 25.6416 155.295C25.3193 155.295 25.0337 155.356 24.7847 155.479C24.5356 155.596 24.3257 155.784 24.1548 156.042C23.9888 156.301 23.8618 156.641 23.7739 157.061C23.686 157.48 23.6421 157.991 23.6421 158.591V160.664C23.6421 161.143 23.6689 161.565 23.7227 161.931C23.7812 162.297 23.8667 162.615 23.979 162.883C24.0913 163.147 24.228 163.364 24.3892 163.535C24.5503 163.706 24.7358 163.833 24.9458 163.916C25.1606 163.994 25.3975 164.033 25.6562 164.033C25.9883 164.033 26.2788 163.97 26.5278 163.843C26.7769 163.716 26.9844 163.518 27.1504 163.25C27.3213 162.976 27.4482 162.627 27.5312 162.202C27.6143 161.772 27.6558 161.26 27.6558 160.664ZM37.4556 158.818V160.444C37.4556 161.318 37.3774 162.056 37.2212 162.656C37.0649 163.257 36.8403 163.74 36.5474 164.106C36.2544 164.473 35.9004 164.739 35.4854 164.905C35.0752 165.066 34.6113 165.146 34.0938 165.146C33.6836 165.146 33.3052 165.095 32.9585 164.993C32.6118 164.89 32.2993 164.727 32.021 164.502C31.7476 164.272 31.5132 163.975 31.3179 163.608C31.1226 163.242 30.9736 162.798 30.8711 162.275C30.7686 161.753 30.7173 161.143 30.7173 160.444V158.818C30.7173 157.944 30.7954 157.212 30.9517 156.621C31.1128 156.03 31.3398 155.557 31.6328 155.2C31.9258 154.839 32.2773 154.58 32.6875 154.424C33.1025 154.268 33.5664 154.189 34.0791 154.189C34.4941 154.189 34.875 154.241 35.2217 154.343C35.5732 154.441 35.8857 154.6 36.1592 154.819C36.4326 155.034 36.6646 155.322 36.855 155.684C37.0503 156.04 37.1992 156.477 37.3018 156.995C37.4043 157.512 37.4556 158.12 37.4556 158.818ZM36.0933 160.664V158.591C36.0933 158.113 36.064 157.693 36.0054 157.332C35.9517 156.965 35.8711 156.653 35.7637 156.394C35.6562 156.135 35.5195 155.925 35.3535 155.764C35.1924 155.603 35.0044 155.486 34.7896 155.413C34.5796 155.334 34.3428 155.295 34.0791 155.295C33.7568 155.295 33.4712 155.356 33.2222 155.479C32.9731 155.596 32.7632 155.784 32.5923 156.042C32.4263 156.301 32.2993 156.641 32.2114 157.061C32.1235 157.48 32.0796 157.991 32.0796 158.591V160.664C32.0796 161.143 32.1064 161.565 32.1602 161.931C32.2188 162.297 32.3042 162.615 32.4165 162.883C32.5288 163.147 32.6655 163.364 32.8267 163.535C32.9878 163.706 33.1733 163.833 33.3833 163.916C33.5981 163.994 33.835 164.033 34.0938 164.033C34.4258 164.033 34.7163 163.97 34.9653 163.843C35.2144 163.716 35.4219 163.518 35.5879 163.25C35.7588 162.976 35.8857 162.627 35.9688 162.202C36.0518 161.772 36.0933 161.26 36.0933 160.664ZM45.8931 158.818V160.444C45.8931 161.318 45.8149 162.056 45.6587 162.656C45.5024 163.257 45.2778 163.74 44.9849 164.106C44.6919 164.473 44.3379 164.739 43.9229 164.905C43.5127 165.066 43.0488 165.146 42.5312 165.146C42.1211 165.146 41.7427 165.095 41.396 164.993C41.0493 164.89 40.7368 164.727 40.4585 164.502C40.1851 164.272 39.9507 163.975 39.7554 163.608C39.5601 163.242 39.4111 162.798 39.3086 162.275C39.2061 161.753 39.1548 161.143 39.1548 160.444V158.818C39.1548 157.944 39.2329 157.212 39.3892 156.621C39.5503 156.03 39.7773 155.557 40.0703 155.2C40.3633 154.839 40.7148 154.58 41.125 154.424C41.54 154.268 42.0039 154.189 42.5166 154.189C42.9316 154.189 43.3125 154.241 43.6592 154.343C44.0107 154.441 44.3232 154.6 44.5967 154.819C44.8701 155.034 45.1021 155.322 45.2925 155.684C45.4878 156.04 45.6367 156.477 45.7393 156.995C45.8418 157.512 45.8931 158.12 45.8931 158.818ZM44.5308 160.664V158.591C44.5308 158.113 44.5015 157.693 44.4429 157.332C44.3892 156.965 44.3086 156.653 44.2012 156.394C44.0938 156.135 43.957 155.925 43.791 155.764C43.6299 155.603 43.4419 155.486 43.2271 155.413C43.0171 155.334 42.7803 155.295 42.5166 155.295C42.1943 155.295 41.9087 155.356 41.6597 155.479C41.4106 155.596 41.2007 155.784 41.0298 156.042C40.8638 156.301 40.7368 156.641 40.6489 157.061C40.561 157.48 40.5171 157.991 40.5171 158.591V160.664C40.5171 161.143 40.5439 161.565 40.5977 161.931C40.6562 162.297 40.7417 162.615 40.854 162.883C40.9663 163.147 41.103 163.364 41.2642 163.535C41.4253 163.706 41.6108 163.833 41.8208 163.916C42.0356 163.994 42.2725 164.033 42.5312 164.033C42.8633 164.033 43.1538 163.97 43.4028 163.843C43.6519 163.716 43.8594 163.518 44.0254 163.25C44.1963 162.976 44.3232 162.627 44.4062 162.202C44.4893 161.772 44.5308 161.26 44.5308 160.664ZM61.772 158.818V160.444C61.772 161.318 61.6938 162.056 61.5376 162.656C61.3813 163.257 61.1567 163.74 60.8638 164.106C60.5708 164.473 60.2168 164.739 59.8018 164.905C59.3916 165.066 58.9277 165.146 58.4102 165.146C58 165.146 57.6216 165.095 57.2749 164.993C56.9282 164.89 56.6157 164.727 56.3374 164.502C56.064 164.272 55.8296 163.975 55.6343 163.608C55.439 163.242 55.29 162.798 55.1875 162.275C55.085 161.753 55.0337 161.143 55.0337 160.444V158.818C55.0337 157.944 55.1118 157.212 55.2681 156.621C55.4292 156.03 55.6562 155.557 55.9492 155.2C56.2422 154.839 56.5938 154.58 57.0039 154.424C57.4189 154.268 57.8828 154.189 58.3955 154.189C58.8105 154.189 59.1914 154.241 59.5381 154.343C59.8896 154.441 60.2021 154.6 60.4756 154.819C60.749 155.034 60.981 155.322 61.1714 155.684C61.3667 156.04 61.5156 156.477 61.6182 156.995C61.7207 157.512 61.772 158.12 61.772 158.818ZM60.4097 160.664V158.591C60.4097 158.113 60.3804 157.693 60.3218 157.332C60.2681 156.965 60.1875 156.653 60.0801 156.394C59.9727 156.135 59.8359 155.925 59.6699 155.764C59.5088 155.603 59.3208 155.486 59.106 155.413C58.896 155.334 58.6592 155.295 58.3955 155.295C58.0732 155.295 57.7876 155.356 57.5386 155.479C57.2896 155.596 57.0796 155.784 56.9087 156.042C56.7427 156.301 56.6157 156.641 56.5278 157.061C56.4399 157.48 56.396 157.991 56.396 158.591V160.664C56.396 161.143 56.4229 161.565 56.4766 161.931C56.5352 162.297 56.6206 162.615 56.7329 162.883C56.8452 163.147 56.9819 163.364 57.1431 163.535C57.3042 163.706 57.4897 163.833 57.6997 163.916C57.9146 163.994 58.1514 164.033 58.4102 164.033C58.7422 164.033 59.0327 163.97 59.2817 163.843C59.5308 163.716 59.7383 163.518 59.9043 163.25C60.0752 162.976 60.2021 162.627 60.2852 162.202C60.3682 161.772 60.4097 161.26 60.4097 160.664ZM70.2095 158.818V160.444C70.2095 161.318 70.1313 162.056 69.9751 162.656C69.8188 163.257 69.5942 163.74 69.3013 164.106C69.0083 164.473 68.6543 164.739 68.2393 164.905C67.8291 165.066 67.3652 165.146 66.8477 165.146C66.4375 165.146 66.0591 165.095 65.7124 164.993C65.3657 164.89 65.0532 164.727 64.7749 164.502C64.5015 164.272 64.2671 163.975 64.0718 163.608C63.8765 163.242 63.7275 162.798 63.625 162.275C63.5225 161.753 63.4712 161.143 63.4712 160.444V158.818C63.4712 157.944 63.5493 157.212 63.7056 156.621C63.8667 156.03 64.0938 155.557 64.3867 155.2C64.6797 154.839 65.0312 154.58 65.4414 154.424C65.8564 154.268 66.3203 154.189 66.833 154.189C67.248 154.189 67.6289 154.241 67.9756 154.343C68.3271 154.441 68.6396 154.6 68.9131 154.819C69.1865 155.034 69.4185 155.322 69.6089 155.684C69.8042 156.04 69.9531 156.477 70.0557 156.995C70.1582 157.512 70.2095 158.12 70.2095 158.818ZM68.8472 160.664V158.591C68.8472 158.113 68.8179 157.693 68.7593 157.332C68.7056 156.965 68.625 156.653 68.5176 156.394C68.4102 156.135 68.2734 155.925 68.1074 155.764C67.9463 155.603 67.7583 155.486 67.5435 155.413C67.3335 155.334 67.0967 155.295 66.833 155.295C66.5107 155.295 66.2251 155.356 65.9761 155.479C65.7271 155.596 65.5171 155.784 65.3462 156.042C65.1802 156.301 65.0532 156.641 64.9653 157.061C64.8774 157.48 64.8335 157.991 64.8335 158.591V160.664C64.8335 161.143 64.8604 161.565 64.9141 161.931C64.9727 162.297 65.0581 162.615 65.1704 162.883C65.2827 163.147 65.4194 163.364 65.5806 163.535C65.7417 163.706 65.9272 163.833 66.1372 163.916C66.3521 163.994 66.5889 164.033 66.8477 164.033C67.1797 164.033 67.4702 163.97 67.7192 163.843C67.9683 163.716 68.1758 163.518 68.3418 163.25C68.5127 162.976 68.6396 162.627 68.7227 162.202C68.8057 161.772 68.8472 161.26 68.8472 160.664ZM78.647 158.818V160.444C78.647 161.318 78.5688 162.056 78.4126 162.656C78.2563 163.257 78.0317 163.74 77.7388 164.106C77.4458 164.473 77.0918 164.739 76.6768 164.905C76.2666 165.066 75.8027 165.146 75.2852 165.146C74.875 165.146 74.4966 165.095 74.1499 164.993C73.8032 164.89 73.4907 164.727 73.2124 164.502C72.939 164.272 72.7046 163.975 72.5093 163.608C72.314 163.242 72.165 162.798 72.0625 162.275C71.96 161.753 71.9087 161.143 71.9087 160.444V158.818C71.9087 157.944 71.9868 157.212 72.1431 156.621C72.3042 156.03 72.5312 155.557 72.8242 155.2C73.1172 154.839 73.4688 154.58 73.8789 154.424C74.2939 154.268 74.7578 154.189 75.2705 154.189C75.6855 154.189 76.0664 154.241 76.4131 154.343C76.7646 154.441 77.0771 154.6 77.3506 154.819C77.624 155.034 77.856 155.322 78.0464 155.684C78.2417 156.04 78.3906 156.477 78.4932 156.995C78.5957 157.512 78.647 158.12 78.647 158.818ZM77.2847 160.664V158.591C77.2847 158.113 77.2554 157.693 77.1968 157.332C77.1431 156.965 77.0625 156.653 76.9551 156.394C76.8477 156.135 76.7109 155.925 76.5449 155.764C76.3838 155.603 76.1958 155.486 75.981 155.413C75.771 155.334 75.5342 155.295 75.2705 155.295C74.9482 155.295 74.6626 155.356 74.4136 155.479C74.1646 155.596 73.9546 155.784 73.7837 156.042C73.6177 156.301 73.4907 156.641 73.4028 157.061C73.3149 157.48 73.271 157.991 73.271 158.591V160.664C73.271 161.143 73.2979 161.565 73.3516 161.931C73.4102 162.297 73.4956 162.615 73.6079 162.883C73.7202 163.147 73.8569 163.364 74.0181 163.535C74.1792 163.706 74.3647 163.833 74.5747 163.916C74.7896 163.994 75.0264 164.033 75.2852 164.033C75.6172 164.033 75.9077 163.97 76.1567 163.843C76.4058 163.716 76.6133 163.518 76.7793 163.25C76.9502 162.976 77.0771 162.627 77.1602 162.202C77.2432 161.772 77.2847 161.26 77.2847 160.664ZM87.0845 158.818V160.444C87.0845 161.318 87.0063 162.056 86.8501 162.656C86.6938 163.257 86.4692 163.74 86.1763 164.106C85.8833 164.473 85.5293 164.739 85.1143 164.905C84.7041 165.066 84.2402 165.146 83.7227 165.146C83.3125 165.146 82.9341 165.095 82.5874 164.993C82.2407 164.89 81.9282 164.727 81.6499 164.502C81.3765 164.272 81.1421 163.975 80.9468 163.608C80.7515 163.242 80.6025 162.798 80.5 162.275C80.3975 161.753 80.3462 161.143 80.3462 160.444V158.818C80.3462 157.944 80.4243 157.212 80.5806 156.621C80.7417 156.03 80.9688 155.557 81.2617 155.2C81.5547 154.839 81.9062 154.58 82.3164 154.424C82.7314 154.268 83.1953 154.189 83.708 154.189C84.123 154.189 84.5039 154.241 84.8506 154.343C85.2021 154.441 85.5146 154.6 85.7881 154.819C86.0615 155.034 86.2935 155.322 86.4839 155.684C86.6792 156.04 86.8281 156.477 86.9307 156.995C87.0332 157.512 87.0845 158.12 87.0845 158.818ZM85.7222 160.664V158.591C85.7222 158.113 85.6929 157.693 85.6343 157.332C85.5806 156.965 85.5 156.653 85.3926 156.394C85.2852 156.135 85.1484 155.925 84.9824 155.764C84.8213 155.603 84.6333 155.486 84.4185 155.413C84.2085 155.334 83.9717 155.295 83.708 155.295C83.3857 155.295 83.1001 155.356 82.8511 155.479C82.6021 155.596 82.3921 155.784 82.2212 156.042C82.0552 156.301 81.9282 156.641 81.8403 157.061C81.7524 157.48 81.7085 157.991 81.7085 158.591V160.664C81.7085 161.143 81.7354 161.565 81.7891 161.931C81.8477 162.297 81.9331 162.615 82.0454 162.883C82.1577 163.147 82.2944 163.364 82.4556 163.535C82.6167 163.706 82.8022 163.833 83.0122 163.916C83.2271 163.994 83.4639 164.033 83.7227 164.033C84.0547 164.033 84.3452 163.97 84.5942 163.843C84.8433 163.716 85.0508 163.518 85.2168 163.25C85.3877 162.976 85.5146 162.627 85.5977 162.202C85.6807 161.772 85.7222 161.26 85.7222 160.664ZM102.963 158.818V160.444C102.963 161.318 102.885 162.056 102.729 162.656C102.573 163.257 102.348 163.74 102.055 164.106C101.762 164.473 101.408 164.739 100.993 164.905C100.583 165.066 100.119 165.146 99.6016 165.146C99.1914 165.146 98.813 165.095 98.4663 164.993C98.1196 164.89 97.8071 164.727 97.5288 164.502C97.2554 164.272 97.021 163.975 96.8257 163.608C96.6304 163.242 96.4814 162.798 96.3789 162.275C96.2764 161.753 96.2251 161.143 96.2251 160.444V158.818C96.2251 157.944 96.3032 157.212 96.4595 156.621C96.6206 156.03 96.8477 155.557 97.1406 155.2C97.4336 154.839 97.7852 154.58 98.1953 154.424C98.6104 154.268 99.0742 154.189 99.5869 154.189C100.002 154.189 100.383 154.241 100.729 154.343C101.081 154.441 101.394 154.6 101.667 154.819C101.94 155.034 102.172 155.322 102.363 155.684C102.558 156.04 102.707 156.477 102.81 156.995C102.912 157.512 102.963 158.12 102.963 158.818ZM101.601 160.664V158.591C101.601 158.113 101.572 157.693 101.513 157.332C101.459 156.965 101.379 156.653 101.271 156.394C101.164 156.135 101.027 155.925 100.861 155.764C100.7 155.603 100.512 155.486 100.297 155.413C100.087 155.334 99.8506 155.295 99.5869 155.295C99.2646 155.295 98.979 155.356 98.73 155.479C98.481 155.596 98.271 155.784 98.1001 156.042C97.9341 156.301 97.8071 156.641 97.7192 157.061C97.6313 157.48 97.5874 157.991 97.5874 158.591V160.664C97.5874 161.143 97.6143 161.565 97.668 161.931C97.7266 162.297 97.812 162.615 97.9243 162.883C98.0366 163.147 98.1733 163.364 98.3345 163.535C98.4956 163.706 98.6812 163.833 98.8911 163.916C99.106 163.994 99.3428 164.033 99.6016 164.033C99.9336 164.033 100.224 163.97 100.473 163.843C100.722 163.716 100.93 163.518 101.096 163.25C101.267 162.976 101.394 162.627 101.477 162.202C101.56 161.772 101.601 161.26 101.601 160.664ZM111.401 158.818V160.444C111.401 161.318 111.323 162.056 111.167 162.656C111.01 163.257 110.786 163.74 110.493 164.106C110.2 164.473 109.846 164.739 109.431 164.905C109.021 165.066 108.557 165.146 108.039 165.146C107.629 165.146 107.25 165.095 106.904 164.993C106.557 164.89 106.245 164.727 105.966 164.502C105.693 164.272 105.458 163.975 105.263 163.608C105.068 163.242 104.919 162.798 104.816 162.275C104.714 161.753 104.663 161.143 104.663 160.444V158.818C104.663 157.944 104.741 157.212 104.897 156.621C105.058 156.03 105.285 155.557 105.578 155.2C105.871 154.839 106.223 154.58 106.633 154.424C107.048 154.268 107.512 154.189 108.024 154.189C108.439 154.189 108.82 154.241 109.167 154.343C109.519 154.441 109.831 154.6 110.104 154.819C110.378 155.034 110.61 155.322 110.8 155.684C110.996 156.04 111.145 156.477 111.247 156.995C111.35 157.512 111.401 158.12 111.401 158.818ZM110.039 160.664V158.591C110.039 158.113 110.009 157.693 109.951 157.332C109.897 156.965 109.816 156.653 109.709 156.394C109.602 156.135 109.465 155.925 109.299 155.764C109.138 155.603 108.95 155.486 108.735 155.413C108.525 155.334 108.288 155.295 108.024 155.295C107.702 155.295 107.417 155.356 107.167 155.479C106.918 155.596 106.708 155.784 106.538 156.042C106.372 156.301 106.245 156.641 106.157 157.061C106.069 157.48 106.025 157.991 106.025 158.591V160.664C106.025 161.143 106.052 161.565 106.105 161.931C106.164 162.297 106.25 162.615 106.362 162.883C106.474 163.147 106.611 163.364 106.772 163.535C106.933 163.706 107.119 163.833 107.329 163.916C107.543 163.994 107.78 164.033 108.039 164.033C108.371 164.033 108.662 163.97 108.911 163.843C109.16 163.716 109.367 163.518 109.533 163.25C109.704 162.976 109.831 162.627 109.914 162.202C109.997 161.772 110.039 161.26 110.039 160.664ZM119.838 158.818V160.444C119.838 161.318 119.76 162.056 119.604 162.656C119.448 163.257 119.223 163.74 118.93 164.106C118.637 164.473 118.283 164.739 117.868 164.905C117.458 165.066 116.994 165.146 116.477 165.146C116.066 165.146 115.688 165.095 115.341 164.993C114.995 164.89 114.682 164.727 114.404 164.502C114.13 164.272 113.896 163.975 113.701 163.608C113.505 163.242 113.356 162.798 113.254 162.275C113.151 161.753 113.1 161.143 113.1 160.444V158.818C113.1 157.944 113.178 157.212 113.334 156.621C113.496 156.03 113.723 155.557 114.016 155.2C114.309 154.839 114.66 154.58 115.07 154.424C115.485 154.268 115.949 154.189 116.462 154.189C116.877 154.189 117.258 154.241 117.604 154.343C117.956 154.441 118.269 154.6 118.542 154.819C118.815 155.034 119.047 155.322 119.238 155.684C119.433 156.04 119.582 156.477 119.685 156.995C119.787 157.512 119.838 158.12 119.838 158.818ZM118.476 160.664V158.591C118.476 158.113 118.447 157.693 118.388 157.332C118.334 156.965 118.254 156.653 118.146 156.394C118.039 156.135 117.902 155.925 117.736 155.764C117.575 155.603 117.387 155.486 117.172 155.413C116.962 155.334 116.726 155.295 116.462 155.295C116.14 155.295 115.854 155.356 115.605 155.479C115.356 155.596 115.146 155.784 114.975 156.042C114.809 156.301 114.682 156.641 114.594 157.061C114.506 157.48 114.462 157.991 114.462 158.591V160.664C114.462 161.143 114.489 161.565 114.543 161.931C114.602 162.297 114.687 162.615 114.799 162.883C114.912 163.147 115.048 163.364 115.209 163.535C115.371 163.706 115.556 163.833 115.766 163.916C115.981 163.994 116.218 164.033 116.477 164.033C116.809 164.033 117.099 163.97 117.348 163.843C117.597 163.716 117.805 163.518 117.971 163.25C118.142 162.976 118.269 162.627 118.352 162.202C118.435 161.772 118.476 161.26 118.476 160.664ZM128.276 158.818V160.444C128.276 161.318 128.198 162.056 128.042 162.656C127.885 163.257 127.661 163.74 127.368 164.106C127.075 164.473 126.721 164.739 126.306 164.905C125.896 165.066 125.432 165.146 124.914 165.146C124.504 165.146 124.125 165.095 123.779 164.993C123.432 164.89 123.12 164.727 122.841 164.502C122.568 164.272 122.333 163.975 122.138 163.608C121.943 163.242 121.794 162.798 121.691 162.275C121.589 161.753 121.538 161.143 121.538 160.444V158.818C121.538 157.944 121.616 157.212 121.772 156.621C121.933 156.03 122.16 155.557 122.453 155.2C122.746 154.839 123.098 154.58 123.508 154.424C123.923 154.268 124.387 154.189 124.899 154.189C125.314 154.189 125.695 154.241 126.042 154.343C126.394 154.441 126.706 154.6 126.979 154.819C127.253 155.034 127.485 155.322 127.675 155.684C127.871 156.04 128.02 156.477 128.122 156.995C128.225 157.512 128.276 158.12 128.276 158.818ZM126.914 160.664V158.591C126.914 158.113 126.884 157.693 126.826 157.332C126.772 156.965 126.691 156.653 126.584 156.394C126.477 156.135 126.34 155.925 126.174 155.764C126.013 155.603 125.825 155.486 125.61 155.413C125.4 155.334 125.163 155.295 124.899 155.295C124.577 155.295 124.292 155.356 124.042 155.479C123.793 155.596 123.583 155.784 123.413 156.042C123.247 156.301 123.12 156.641 123.032 157.061C122.944 157.48 122.9 157.991 122.9 158.591V160.664C122.9 161.143 122.927 161.565 122.98 161.931C123.039 162.297 123.125 162.615 123.237 162.883C123.349 163.147 123.486 163.364 123.647 163.535C123.808 163.706 123.994 163.833 124.204 163.916C124.418 163.994 124.655 164.033 124.914 164.033C125.246 164.033 125.537 163.97 125.786 163.843C126.035 163.716 126.242 163.518 126.408 163.25C126.579 162.976 126.706 162.627 126.789 162.202C126.872 161.772 126.914 161.26 126.914 160.664ZM156.796 154.277V165H155.441V155.969L152.709 156.965V155.742L156.584 154.277H156.796ZM165.981 154.321H166.098V155.471H165.981C165.263 155.471 164.663 155.588 164.179 155.823C163.696 156.052 163.312 156.362 163.029 156.753C162.746 157.139 162.541 157.573 162.414 158.057C162.292 158.54 162.231 159.031 162.231 159.529V161.096C162.231 161.57 162.287 161.99 162.399 162.356C162.512 162.717 162.666 163.022 162.861 163.271C163.056 163.521 163.276 163.708 163.52 163.835C163.769 163.962 164.028 164.026 164.296 164.026C164.609 164.026 164.887 163.967 165.131 163.85C165.375 163.728 165.581 163.56 165.747 163.345C165.917 163.125 166.047 162.866 166.135 162.568C166.223 162.271 166.267 161.943 166.267 161.587C166.267 161.27 166.228 160.964 166.149 160.671C166.071 160.374 165.952 160.11 165.791 159.88C165.629 159.646 165.427 159.463 165.183 159.331C164.943 159.194 164.658 159.126 164.326 159.126C163.95 159.126 163.598 159.219 163.271 159.404C162.949 159.585 162.683 159.824 162.473 160.122C162.268 160.415 162.15 160.735 162.121 161.082L161.403 161.074C161.472 160.527 161.599 160.061 161.784 159.675C161.975 159.285 162.209 158.967 162.487 158.723C162.771 158.474 163.085 158.293 163.432 158.181C163.784 158.064 164.155 158.005 164.545 158.005C165.078 158.005 165.537 158.105 165.922 158.306C166.308 158.506 166.625 158.774 166.875 159.111C167.124 159.443 167.307 159.819 167.424 160.239C167.546 160.654 167.607 161.082 167.607 161.521C167.607 162.024 167.536 162.495 167.395 162.935C167.253 163.374 167.041 163.76 166.757 164.092C166.479 164.424 166.135 164.683 165.725 164.868C165.314 165.054 164.838 165.146 164.296 165.146C163.72 165.146 163.217 165.029 162.788 164.795C162.358 164.556 162.001 164.238 161.718 163.843C161.435 163.447 161.223 163.008 161.081 162.524C160.939 162.041 160.869 161.55 160.869 161.052V160.415C160.869 159.663 160.944 158.926 161.096 158.203C161.247 157.48 161.508 156.826 161.879 156.24C162.255 155.654 162.775 155.188 163.439 154.841C164.104 154.495 164.951 154.321 165.981 154.321ZM175.913 158.818V160.444C175.913 161.318 175.834 162.056 175.678 162.656C175.522 163.257 175.297 163.74 175.004 164.106C174.711 164.473 174.357 164.739 173.942 164.905C173.532 165.066 173.068 165.146 172.551 165.146C172.141 165.146 171.762 165.095 171.416 164.993C171.069 164.89 170.756 164.727 170.478 164.502C170.205 164.272 169.97 163.975 169.775 163.608C169.58 163.242 169.431 162.798 169.328 162.275C169.226 161.753 169.174 161.143 169.174 160.444V158.818C169.174 157.944 169.252 157.212 169.409 156.621C169.57 156.03 169.797 155.557 170.09 155.2C170.383 154.839 170.734 154.58 171.145 154.424C171.56 154.268 172.023 154.189 172.536 154.189C172.951 154.189 173.332 154.241 173.679 154.343C174.03 154.441 174.343 154.6 174.616 154.819C174.89 155.034 175.122 155.322 175.312 155.684C175.507 156.04 175.656 156.477 175.759 156.995C175.861 157.512 175.913 158.12 175.913 158.818ZM174.55 160.664V158.591C174.55 158.113 174.521 157.693 174.462 157.332C174.409 156.965 174.328 156.653 174.221 156.394C174.113 156.135 173.977 155.925 173.811 155.764C173.649 155.603 173.461 155.486 173.247 155.413C173.037 155.334 172.8 155.295 172.536 155.295C172.214 155.295 171.928 155.356 171.679 155.479C171.43 155.596 171.22 155.784 171.049 156.042C170.883 156.301 170.756 156.641 170.668 157.061C170.581 157.48 170.537 157.991 170.537 158.591V160.664C170.537 161.143 170.563 161.565 170.617 161.931C170.676 162.297 170.761 162.615 170.874 162.883C170.986 163.147 171.123 163.364 171.284 163.535C171.445 163.706 171.63 163.833 171.84 163.916C172.055 163.994 172.292 164.033 172.551 164.033C172.883 164.033 173.173 163.97 173.422 163.843C173.671 163.716 173.879 163.518 174.045 163.25C174.216 162.976 174.343 162.627 174.426 162.202C174.509 161.772 174.55 161.26 174.55 160.664ZM184.35 158.818V160.444C184.35 161.318 184.272 162.056 184.116 162.656C183.959 163.257 183.735 163.74 183.442 164.106C183.149 164.473 182.795 164.739 182.38 164.905C181.97 165.066 181.506 165.146 180.988 165.146C180.578 165.146 180.2 165.095 179.853 164.993C179.506 164.89 179.194 164.727 178.916 164.502C178.642 164.272 178.408 163.975 178.212 163.608C178.017 163.242 177.868 162.798 177.766 162.275C177.663 161.753 177.612 161.143 177.612 160.444V158.818C177.612 157.944 177.69 157.212 177.846 156.621C178.007 156.03 178.234 155.557 178.527 155.2C178.82 154.839 179.172 154.58 179.582 154.424C179.997 154.268 180.461 154.189 180.974 154.189C181.389 154.189 181.77 154.241 182.116 154.343C182.468 154.441 182.78 154.6 183.054 154.819C183.327 155.034 183.559 155.322 183.75 155.684C183.945 156.04 184.094 156.477 184.196 156.995C184.299 157.512 184.35 158.12 184.35 158.818ZM182.988 160.664V158.591C182.988 158.113 182.958 157.693 182.9 157.332C182.846 156.965 182.766 156.653 182.658 156.394C182.551 156.135 182.414 155.925 182.248 155.764C182.087 155.603 181.899 155.486 181.684 155.413C181.474 155.334 181.237 155.295 180.974 155.295C180.651 155.295 180.366 155.356 180.117 155.479C179.868 155.596 179.658 155.784 179.487 156.042C179.321 156.301 179.194 156.641 179.106 157.061C179.018 157.48 178.974 157.991 178.974 158.591V160.664C178.974 161.143 179.001 161.565 179.055 161.931C179.113 162.297 179.199 162.615 179.311 162.883C179.423 163.147 179.56 163.364 179.721 163.535C179.882 163.706 180.068 163.833 180.278 163.916C180.493 163.994 180.729 164.033 180.988 164.033C181.32 164.033 181.611 163.97 181.86 163.843C182.109 163.716 182.316 163.518 182.482 163.25C182.653 162.976 182.78 162.627 182.863 162.202C182.946 161.772 182.988 161.26 182.988 160.664ZM192.788 158.818V160.444C192.788 161.318 192.709 162.056 192.553 162.656C192.397 163.257 192.172 163.74 191.879 164.106C191.586 164.473 191.232 164.739 190.817 164.905C190.407 165.066 189.943 165.146 189.426 165.146C189.016 165.146 188.637 165.095 188.291 164.993C187.944 164.89 187.631 164.727 187.353 164.502C187.08 164.272 186.845 163.975 186.65 163.608C186.455 163.242 186.306 162.798 186.203 162.275C186.101 161.753 186.049 161.143 186.049 160.444V158.818C186.049 157.944 186.127 157.212 186.284 156.621C186.445 156.03 186.672 155.557 186.965 155.2C187.258 154.839 187.609 154.58 188.02 154.424C188.435 154.268 188.898 154.189 189.411 154.189C189.826 154.189 190.207 154.241 190.554 154.343C190.905 154.441 191.218 154.6 191.491 154.819C191.765 155.034 191.997 155.322 192.187 155.684C192.382 156.04 192.531 156.477 192.634 156.995C192.736 157.512 192.788 158.12 192.788 158.818ZM191.425 160.664V158.591C191.425 158.113 191.396 157.693 191.337 157.332C191.284 156.965 191.203 156.653 191.096 156.394C190.988 156.135 190.852 155.925 190.686 155.764C190.524 155.603 190.336 155.486 190.122 155.413C189.912 155.334 189.675 155.295 189.411 155.295C189.089 155.295 188.803 155.356 188.554 155.479C188.305 155.596 188.095 155.784 187.924 156.042C187.758 156.301 187.631 156.641 187.543 157.061C187.456 157.48 187.412 157.991 187.412 158.591V160.664C187.412 161.143 187.438 161.565 187.492 161.931C187.551 162.297 187.636 162.615 187.749 162.883C187.861 163.147 187.998 163.364 188.159 163.535C188.32 163.706 188.505 163.833 188.715 163.916C188.93 163.994 189.167 164.033 189.426 164.033C189.758 164.033 190.048 163.97 190.297 163.843C190.546 163.716 190.754 163.518 190.92 163.25C191.091 162.976 191.218 162.627 191.301 162.202C191.384 161.772 191.425 161.26 191.425 160.664Z" fill="#5A5A5A"/>
<rect x="13" y="95" width="34" height="27" rx="9" fill="#5966AA"/>
</svg>
